<svg xmlns="http://www.w3.org/2000/svg" viewBox="0 0 512 512" width="100%" height="100%">
  <rect width="512" height="512" fill="#000000" />

  <g transform="translate(256, 256) rotate(-35) scale(1.15) translate(-256, -256)">
    
    <path d="M 26,190 H 486 V 322 H 266 L 260,310 L 252,310 L 246,322 H 26 Z" fill="#1b8a4f" stroke="#115c34" stroke-width="4" />
    
    <rect x="52" y="204" width="40" height="84" rx="4" fill="#141414" />
    <rect x="102" y="204" width="40" height="84" rx="4" fill="#141414" />
    <rect x="152" y="204" width="40" height="84" rx="4" fill="#141414" />
    <rect x="202" y="204" width="40" height="84" rx="4" fill="#141414" />
    
    <rect x="270" y="204" width="40" height="84" rx="4" fill="#141414" />
    <rect x="320" y="204" width="40" height="84" rx="4" fill="#141414" />
    <rect x="370" y="204" width="40" height="84" rx="4" fill="#141414" />
    <rect x="420" y="204" width="40" height="84" rx="4" fill="#141414" />
    
    <line x1="38" y1="327" x2="238" y2="327" stroke="#e5b800" stroke-width="8" stroke-dasharray="6,3" />
    <line x1="274" y1="327" x2="474" y2="327" stroke="#e5b800" stroke-width="8" stroke-dasharray="6,3" />
    
    <circle cx="38" cy="204" r="5" fill="#e5b800" opacity="0.9" />
    <circle cx="474" cy="204" r="5" fill="#e5b800" opacity="0.9" />
  </g>
</svg>
